<svg width="3845" height="967" viewBox="0 0 3845 967" fill="none" xmlns="http://www.w3.org/2000/svg">
<rect x="912.751" y="456.25" width="645.235" height="645.235" rx="124" transform="rotate(135 912.751 456.25)" fill="#90CB62"/>
<path d="M355.6 279H504.4C591.4 279 647.8 342 644.8 436.2C644.8 528.6 588.4 587.4 504.4 587.4H459.4V698.4H355.6V279ZM457.6 494.4H504.4C529 494.4 545.8 469.8 545.8 433.2C545.8 397.8 529 373.8 504.4 373.8H457.6V494.4Z" fill="white"/>
<path d="M1260.4 698.4H1147L1093 567H1053.4V698.4H949.6V279H1097.8C1183 279 1239.4 338.4 1239.4 427.2C1238.8 475.2 1226.2 513 1189 540.6L1260.4 693V698.4ZM1051.6 477.6H1097.2C1122.4 477.6 1139.2 456.6 1139.2 424.8C1139.2 394.2 1122.4 373.8 1097.2 373.8H1051.6V477.6ZM1652.12 489C1652.12 618.6 1578.92 705 1469.12 705C1358.72 705 1284.92 618.6 1284.92 489C1284.92 359.4 1358.72 273 1469.12 273C1578.92 273 1652.12 359.4 1652.12 489ZM1388.12 489C1388.12 556.2 1420.52 602.4 1469.12 602.4C1516.52 602.4 1547.72 556.2 1547.72 489C1547.72 421.8 1516.52 376.2 1469.12 376.2C1420.52 376.2 1388.12 421.8 1388.12 489ZM1690.42 566.4H1788.82C1788.22 592.2 1807.42 610.2 1836.22 610.2C1863.82 610.2 1882.42 596.4 1882.42 572.4C1882.42 538.2 1845.22 535.8 1824.22 534C1758.82 529.2 1693.42 493.8 1693.42 406.2C1693.42 324 1749.82 273 1833.82 273C1919.02 273 1974.22 328.2 1971.82 410.4H1874.62C1876.42 385.2 1860.22 367.2 1835.62 367.2C1811.02 367.2 1795.42 381.6 1795.42 405.6C1795.42 424.2 1809.22 437.4 1841.62 441.6C1917.82 449.4 1985.02 471.6 1985.02 573.6C1985.02 654 1926.22 705 1837.42 705C1746.82 705 1688.02 649.8 1690.42 566.4ZM2038.86 279H2187.66C2274.66 279 2331.06 342 2328.06 436.2C2328.06 528.6 2271.66 587.4 2187.66 587.4H2142.66V698.4H2038.86V279ZM2140.86 494.4H2187.66C2212.26 494.4 2229.06 469.8 2229.06 433.2C2229.06 397.8 2212.26 373.8 2187.66 373.8H2140.86V494.4ZM2478.97 374.4V434.4H2590.57V530.4H2478.97V598.8H2606.17V699H2375.77V279H2601.37V374.4H2478.97ZM2977.78 698.4H2864.38L2810.38 567H2770.78V698.4H2666.98V279H2815.18C2900.38 279 2956.78 338.4 2956.78 427.2C2956.18 475.2 2943.58 513 2906.38 540.6L2977.78 693V698.4ZM2768.98 477.6H2814.58C2839.78 477.6 2856.58 456.6 2856.58 424.8C2856.58 394.2 2839.78 373.8 2814.58 373.8H2768.98V477.6ZM3199.6 699H3011.2V610.2H3053.2V367.8H3015.4V279H3195.4V367.8H3157V610.2H3199.6V699ZM3231.77 279H3497.57V375H3415.37V699H3314.57V375H3231.77V279ZM3674.36 436.2H3675.56C3680.96 413.4 3688.16 385.8 3698.36 362.4L3734.36 279H3844.16V285L3727.16 538.8V699H3623.36V538.8L3505.16 285V279H3616.16L3651.56 362.4C3661.16 385.8 3668.36 414 3674.36 436.2Z" fill="black"/>
<path d="M975.642 813.091V827.011H918.011V813.091H975.642ZM935.273 920V798.335C935.273 792.21 936.711 787.106 939.588 783.023C942.465 778.939 946.2 775.877 950.794 773.835C955.388 771.794 960.237 770.773 965.341 770.773C969.378 770.773 972.672 771.098 975.224 771.747C977.777 772.397 979.679 773 980.932 773.557L976.199 787.756C975.364 787.477 974.204 787.129 972.719 786.712C971.28 786.294 969.378 786.085 967.011 786.085C961.582 786.085 957.661 787.454 955.249 790.192C952.882 792.929 951.699 796.943 951.699 802.233V920H935.273ZM998.663 920V813.091H1015.09V920H998.663ZM1007.02 795.273C1003.81 795.273 1001.05 794.182 998.733 792.001C996.459 789.821 995.322 787.199 995.322 784.136C995.322 781.074 996.459 778.452 998.733 776.271C1001.05 774.09 1003.81 773 1007.02 773C1010.22 773 1012.95 774.09 1015.23 776.271C1017.55 778.452 1018.71 781.074 1018.71 784.136C1018.71 787.199 1017.55 789.821 1015.23 792.001C1012.95 794.182 1010.22 795.273 1007.02 795.273ZM1061.6 855.688V920H1045.17V813.091H1061.04V829.795H1062.44C1064.94 824.366 1068.75 820.005 1073.85 816.71C1078.96 813.369 1085.54 811.699 1093.62 811.699C1100.86 811.699 1107.19 813.184 1112.62 816.153C1118.05 819.077 1122.27 823.531 1125.29 829.517C1128.3 835.456 1129.81 842.973 1129.81 852.068V920H1113.38V853.182C1113.38 844.783 1111.2 838.241 1106.84 833.554C1102.48 828.821 1096.49 826.455 1088.88 826.455C1083.64 826.455 1078.96 827.591 1074.83 829.865C1070.74 832.139 1067.52 835.456 1065.15 839.818C1062.78 844.18 1061.6 849.47 1061.6 855.688ZM1191.29 922.506C1184.51 922.506 1178.36 921.23 1172.84 918.678C1167.32 916.079 1162.94 912.344 1159.69 907.472C1156.44 902.553 1154.82 896.614 1154.82 889.653C1154.82 883.528 1156.02 878.563 1158.44 874.759C1160.85 870.907 1164.07 867.891 1168.11 865.71C1172.15 863.529 1176.6 861.905 1181.47 860.838C1186.39 859.724 1191.33 858.843 1196.3 858.193C1202.79 857.358 1208.06 856.732 1212.1 856.314C1216.18 855.85 1219.15 855.084 1221.01 854.017C1222.91 852.95 1223.86 851.094 1223.86 848.449V847.892C1223.86 841.025 1221.98 835.688 1218.22 831.884C1214.51 828.079 1208.87 826.176 1201.31 826.176C1193.47 826.176 1187.32 827.893 1182.87 831.327C1178.41 834.76 1175.28 838.426 1173.47 842.324L1157.88 836.756C1160.66 830.259 1164.37 825.202 1169.01 821.582C1173.7 817.917 1178.81 815.365 1184.33 813.926C1189.9 812.441 1195.37 811.699 1200.75 811.699C1204.19 811.699 1208.13 812.116 1212.59 812.952C1217.09 813.741 1221.43 815.388 1225.6 817.893C1229.82 820.399 1233.33 824.181 1236.11 829.239C1238.9 834.296 1240.29 841.071 1240.29 849.562V920H1223.86V905.523H1223.03C1221.91 907.843 1220.06 910.325 1217.46 912.97C1214.86 915.615 1211.4 917.866 1207.09 919.722C1202.77 921.578 1197.51 922.506 1191.29 922.506ZM1193.79 907.75C1200.29 907.75 1205.76 906.474 1210.22 903.922C1214.72 901.37 1218.11 898.075 1220.38 894.038C1222.7 890.001 1223.86 885.756 1223.86 881.301V866.267C1223.17 867.102 1221.63 867.868 1219.27 868.564C1216.95 869.214 1214.26 869.794 1211.19 870.304C1208.18 870.768 1205.23 871.186 1202.35 871.557C1199.52 871.882 1197.23 872.16 1195.46 872.392C1191.19 872.949 1187.2 873.854 1183.49 875.107C1179.83 876.313 1176.86 878.146 1174.58 880.605C1172.36 883.018 1171.24 886.312 1171.24 890.489C1171.24 896.196 1173.35 900.511 1177.58 903.435C1181.84 906.312 1187.25 907.75 1193.79 907.75ZM1286.69 855.688V920H1270.27V813.091H1286.14V829.795H1287.53C1290.04 824.366 1293.84 820.005 1298.94 816.71C1304.05 813.369 1310.64 811.699 1318.71 811.699C1325.95 811.699 1332.28 813.184 1337.71 816.153C1343.14 819.077 1347.36 823.531 1350.38 829.517C1353.4 835.456 1354.9 842.973 1354.9 852.068V920H1338.48V853.182C1338.48 844.783 1336.3 838.241 1331.94 833.554C1327.57 828.821 1321.59 826.455 1313.98 826.455C1308.74 826.455 1304.05 827.591 1299.92 829.865C1295.84 832.139 1292.61 835.456 1290.24 839.818C1287.88 844.18 1286.69 849.47 1286.69 855.688ZM1428.35 922.227C1418.33 922.227 1409.7 919.861 1402.46 915.128C1395.22 910.395 1389.65 903.875 1385.76 895.57C1381.86 887.264 1379.91 877.775 1379.91 867.102C1379.91 856.244 1381.9 846.662 1385.9 838.357C1389.93 830.004 1395.55 823.485 1402.74 818.798C1409.98 814.065 1418.42 811.699 1428.07 811.699C1435.59 811.699 1442.37 813.091 1448.4 815.875C1454.43 818.659 1459.37 822.557 1463.22 827.568C1467.07 832.58 1469.46 838.426 1470.39 845.108H1453.97C1452.71 840.236 1449.93 835.92 1445.61 832.162C1441.35 828.357 1435.59 826.455 1428.35 826.455C1421.95 826.455 1416.33 828.125 1411.51 831.466C1406.73 834.76 1402.99 839.424 1400.3 845.456C1397.66 851.442 1396.34 858.472 1396.34 866.545C1396.34 874.805 1397.63 881.997 1400.23 888.122C1402.88 894.247 1406.59 899.003 1411.37 902.391C1416.2 905.778 1421.86 907.472 1428.35 907.472C1432.62 907.472 1436.5 906.729 1439.98 905.244C1443.46 903.759 1446.4 901.625 1448.82 898.841C1451.23 896.057 1452.95 892.716 1453.97 888.818H1470.39C1469.46 895.129 1467.17 900.813 1463.5 905.871C1459.88 910.882 1455.08 914.873 1449.09 917.842C1443.15 920.766 1436.24 922.227 1428.35 922.227ZM1494.41 920V813.091H1510.83V920H1494.41ZM1502.76 795.273C1499.56 795.273 1496.79 794.182 1494.47 792.001C1492.2 789.821 1491.06 787.199 1491.06 784.136C1491.06 781.074 1492.2 778.452 1494.47 776.271C1496.79 774.09 1499.56 773 1502.76 773C1505.96 773 1508.7 774.09 1510.97 776.271C1513.29 778.452 1514.45 781.074 1514.45 784.136C1514.45 787.199 1513.29 789.821 1510.97 792.001C1508.7 794.182 1505.96 795.273 1502.76 795.273ZM1572.38 922.506C1565.6 922.506 1559.45 921.23 1553.93 918.678C1548.41 916.079 1544.03 912.344 1540.78 907.472C1537.53 902.553 1535.91 896.614 1535.91 889.653C1535.91 883.528 1537.11 878.563 1539.52 874.759C1541.94 870.907 1545.16 867.891 1549.2 865.71C1553.24 863.529 1557.69 861.905 1562.56 860.838C1567.48 859.724 1572.42 858.843 1577.39 858.193C1583.88 857.358 1589.15 856.732 1593.19 856.314C1597.27 855.85 1600.24 855.084 1602.1 854.017C1604 852.95 1604.95 851.094 1604.95 848.449V847.892C1604.95 841.025 1603.07 835.688 1599.31 831.884C1595.6 828.079 1589.96 826.176 1582.4 826.176C1574.56 826.176 1568.41 827.893 1563.96 831.327C1559.5 834.76 1556.37 838.426 1554.56 842.324L1538.97 836.756C1541.75 830.259 1545.46 825.202 1550.1 821.582C1554.79 817.917 1559.9 815.365 1565.42 813.926C1570.99 812.441 1576.46 811.699 1581.84 811.699C1585.28 811.699 1589.22 812.116 1593.68 812.952C1598.18 813.741 1602.51 815.388 1606.69 817.893C1610.91 820.399 1614.42 824.181 1617.2 829.239C1619.99 834.296 1621.38 841.071 1621.38 849.562V920H1604.95V905.523H1604.12C1603 907.843 1601.15 910.325 1598.55 912.97C1595.95 915.615 1592.49 917.866 1588.18 919.722C1583.86 921.578 1578.59 922.506 1572.38 922.506ZM1574.88 907.75C1581.38 907.75 1586.85 906.474 1591.31 903.922C1595.81 901.37 1599.2 898.075 1601.47 894.038C1603.79 890.001 1604.95 885.756 1604.95 881.301V866.267C1604.25 867.102 1602.72 867.868 1600.36 868.564C1598.04 869.214 1595.35 869.794 1592.28 870.304C1589.27 870.768 1586.32 871.186 1583.44 871.557C1580.61 871.882 1578.32 872.16 1576.55 872.392C1572.28 872.949 1568.29 873.854 1564.58 875.107C1560.92 876.313 1557.95 878.146 1555.67 880.605C1553.45 883.018 1552.33 886.312 1552.33 890.489C1552.33 896.196 1554.44 900.511 1558.67 903.435C1562.93 906.312 1568.34 907.75 1574.88 907.75ZM1667.78 777.455V920H1651.36V777.455H1667.78ZM1796.43 922.227C1786.4 922.227 1777.77 919.861 1770.53 915.128C1763.3 910.395 1757.73 903.875 1753.83 895.57C1749.93 887.264 1747.98 877.775 1747.98 867.102C1747.98 856.244 1749.98 846.662 1753.97 838.357C1758.01 830.004 1763.62 823.485 1770.81 818.798C1778.05 814.065 1786.5 811.699 1796.15 811.699C1803.67 811.699 1810.44 813.091 1816.47 815.875C1822.5 818.659 1827.45 822.557 1831.3 827.568C1835.15 832.58 1837.54 838.426 1838.47 845.108H1822.04C1820.79 840.236 1818 835.92 1813.69 832.162C1809.42 828.357 1803.67 826.455 1796.43 826.455C1790.02 826.455 1784.41 828.125 1779.58 831.466C1774.8 834.76 1771.07 839.424 1768.38 845.456C1765.73 851.442 1764.41 858.472 1764.41 866.545C1764.41 874.805 1765.71 881.997 1768.31 888.122C1770.95 894.247 1774.66 899.003 1779.44 902.391C1784.27 905.778 1789.93 907.472 1796.43 907.472C1800.7 907.472 1804.57 906.729 1808.05 905.244C1811.53 903.759 1814.48 901.625 1816.89 898.841C1819.3 896.057 1821.02 892.716 1822.04 888.818H1838.47C1837.54 895.129 1835.24 900.813 1831.58 905.871C1827.96 910.882 1823.15 914.873 1817.17 917.842C1811.23 920.766 1804.32 922.227 1796.43 922.227ZM1905.91 922.227C1896.26 922.227 1887.79 919.93 1880.51 915.337C1873.27 910.743 1867.61 904.316 1863.52 896.057C1859.49 887.797 1857.47 878.146 1857.47 867.102C1857.47 855.966 1859.49 846.245 1863.52 837.939C1867.61 829.633 1873.27 823.183 1880.51 818.589C1887.79 813.996 1896.26 811.699 1905.91 811.699C1915.56 811.699 1924.01 813.996 1931.25 818.589C1938.53 823.183 1944.19 829.633 1948.23 837.939C1952.31 846.245 1954.35 855.966 1954.35 867.102C1954.35 878.146 1952.31 887.797 1948.23 896.057C1944.19 904.316 1938.53 910.743 1931.25 915.337C1924.01 919.93 1915.56 922.227 1905.91 922.227ZM1905.91 907.472C1913.24 907.472 1919.27 905.592 1924.01 901.834C1928.74 898.075 1932.24 893.134 1934.52 887.009C1936.79 880.884 1937.93 874.248 1937.93 867.102C1937.93 859.956 1936.79 853.298 1934.52 847.126C1932.24 840.955 1928.74 835.967 1924.01 832.162C1919.27 828.357 1913.24 826.455 1905.91 826.455C1898.58 826.455 1892.55 828.357 1887.81 832.162C1883.08 835.967 1879.58 840.955 1877.3 847.126C1875.03 853.298 1873.89 859.956 1873.89 867.102C1873.89 874.248 1875.03 880.884 1877.3 887.009C1879.58 893.134 1883.08 898.075 1887.81 901.834C1892.55 905.592 1898.58 907.472 1905.91 907.472ZM1995.85 855.688V920H1979.43V813.091H1995.3V829.795H1996.69C1999.2 824.366 2003 820.005 2008.1 816.71C2013.21 813.369 2019.8 811.699 2027.87 811.699C2035.11 811.699 2041.44 813.184 2046.87 816.153C2052.3 819.077 2056.52 823.531 2059.54 829.517C2062.56 835.456 2064.06 842.973 2064.06 852.068V920H2047.64V853.182C2047.64 844.783 2045.46 838.241 2041.1 833.554C2036.73 828.821 2030.75 826.455 2023.14 826.455C2017.9 826.455 2013.21 827.591 2009.08 829.865C2005 832.139 2001.77 835.456 1999.4 839.818C1997.04 844.18 1995.85 849.47 1995.85 855.688ZM2169.81 837.034L2155.05 841.21C2154.12 838.751 2152.76 836.361 2150.95 834.041C2149.18 831.675 2146.77 829.726 2143.71 828.195C2140.64 826.663 2136.72 825.898 2131.94 825.898C2125.4 825.898 2119.95 827.406 2115.59 830.422C2111.27 833.392 2109.12 837.173 2109.12 841.767C2109.12 845.85 2110.6 849.075 2113.57 851.442C2116.54 853.808 2121.18 855.78 2127.49 857.358L2143.36 861.256C2152.92 863.576 2160.04 867.125 2164.73 871.905C2169.41 876.638 2171.76 882.74 2171.76 890.21C2171.76 896.335 2169.99 901.811 2166.47 906.636C2162.99 911.462 2158.12 915.267 2151.85 918.051C2145.59 920.835 2138.3 922.227 2130 922.227C2119.09 922.227 2110.07 919.861 2102.92 915.128C2095.77 910.395 2091.25 903.481 2089.35 894.386L2104.94 890.489C2106.42 896.242 2109.23 900.558 2113.36 903.435C2117.54 906.312 2122.99 907.75 2129.72 907.75C2137.37 907.75 2143.45 906.126 2147.95 902.878C2152.5 899.583 2154.77 895.639 2154.77 891.045C2154.77 887.333 2153.47 884.224 2150.88 881.719C2148.28 879.167 2144.29 877.264 2138.9 876.011L2121.09 871.835C2111.3 869.515 2104.1 865.919 2099.51 861.047C2094.96 856.128 2092.69 849.98 2092.69 842.602C2092.69 836.57 2094.38 831.234 2097.77 826.594C2101.2 821.954 2105.87 818.311 2111.76 815.666C2117.7 813.021 2124.43 811.699 2131.94 811.699C2142.52 811.699 2150.83 814.019 2156.86 818.659C2162.94 823.299 2167.26 829.424 2169.81 837.034ZM2263.86 876.29V813.091H2280.28V920H2263.86V901.903H2262.74C2260.24 907.332 2256.34 911.949 2251.05 915.754C2245.76 919.513 2239.08 921.392 2231.01 921.392C2224.32 921.392 2218.38 919.93 2213.19 917.007C2207.99 914.037 2203.91 909.583 2200.94 903.643C2197.97 897.658 2196.48 890.117 2196.48 881.023V813.091H2212.91V879.909C2212.91 887.705 2215.09 893.922 2219.45 898.562C2223.86 903.203 2229.47 905.523 2236.3 905.523C2240.38 905.523 2244.53 904.479 2248.75 902.391C2253.02 900.303 2256.6 897.101 2259.47 892.786C2262.4 888.47 2263.86 882.972 2263.86 876.29ZM2326.8 777.455V920H2310.37V777.455H2326.8ZM2403.38 813.091V827.011H2347.97V813.091H2403.38ZM2364.12 787.477H2380.55V889.375C2380.55 894.015 2381.22 897.495 2382.56 899.815C2383.96 902.089 2385.72 903.62 2387.85 904.409C2390.04 905.152 2392.33 905.523 2394.75 905.523C2396.56 905.523 2398.04 905.43 2399.2 905.244C2400.36 905.012 2401.29 904.827 2401.98 904.688L2405.32 919.443C2404.21 919.861 2402.66 920.278 2400.66 920.696C2398.67 921.16 2396.14 921.392 2393.07 921.392C2388.43 921.392 2383.89 920.394 2379.43 918.399C2375.02 916.404 2371.36 913.365 2368.44 909.281C2365.56 905.198 2364.12 900.047 2364.12 893.83V787.477ZM2428.08 920V813.091H2444.51V920H2428.08ZM2436.44 795.273C2433.24 795.273 2430.47 794.182 2428.15 792.001C2425.88 789.821 2424.74 787.199 2424.74 784.136C2424.74 781.074 2425.88 778.452 2428.15 776.271C2430.47 774.09 2433.24 773 2436.44 773C2439.64 773 2442.38 774.09 2444.65 776.271C2446.97 778.452 2448.13 781.074 2448.13 784.136C2448.13 787.199 2446.97 789.821 2444.65 792.001C2442.38 794.182 2439.64 795.273 2436.44 795.273ZM2491.02 855.688V920H2474.6V813.091H2490.47V829.795H2491.86C2494.36 824.366 2498.17 820.005 2503.27 816.71C2508.38 813.369 2514.97 811.699 2523.04 811.699C2530.28 811.699 2536.61 813.184 2542.04 816.153C2547.47 819.077 2551.69 823.531 2554.71 829.517C2557.72 835.456 2559.23 842.973 2559.23 852.068V920H2542.81V853.182C2542.81 844.783 2540.63 838.241 2536.26 833.554C2531.9 828.821 2525.92 826.455 2518.31 826.455C2513.06 826.455 2508.38 827.591 2504.25 829.865C2500.16 832.139 2496.94 835.456 2494.57 839.818C2492.21 844.18 2491.02 849.47 2491.02 855.688ZM2632.4 962.318C2624.47 962.318 2617.65 961.297 2611.94 959.256C2606.23 957.26 2601.48 954.616 2597.67 951.321C2593.91 948.073 2590.92 944.593 2588.69 940.881L2601.78 931.693C2603.26 933.642 2605.14 935.869 2607.42 938.375C2609.69 940.927 2612.8 943.131 2616.74 944.987C2620.73 946.89 2625.95 947.841 2632.4 947.841C2641.03 947.841 2648.16 945.753 2653.77 941.577C2659.38 937.401 2662.19 930.858 2662.19 921.949V900.233H2660.8C2659.59 902.182 2657.88 904.595 2655.65 907.472C2653.47 910.302 2650.31 912.831 2646.18 915.058C2642.1 917.239 2636.58 918.33 2629.62 918.33C2620.99 918.33 2613.24 916.288 2606.37 912.205C2599.55 908.121 2594.14 902.182 2590.15 894.386C2586.21 886.591 2584.24 877.125 2584.24 865.989C2584.24 855.038 2586.16 845.502 2590.01 837.382C2593.87 829.215 2599.23 822.905 2606.09 818.45C2612.96 813.949 2620.89 811.699 2629.9 811.699C2636.86 811.699 2642.38 812.859 2646.46 815.179C2650.59 817.453 2653.75 820.051 2655.93 822.974C2658.16 825.851 2659.87 828.218 2661.08 830.074H2662.75V813.091H2678.62V923.062C2678.62 932.25 2676.53 939.721 2672.35 945.474C2668.22 951.275 2662.66 955.52 2655.65 958.212C2648.69 960.949 2640.94 962.318 2632.4 962.318ZM2631.85 903.574C2638.43 903.574 2644 902.066 2648.55 899.05C2653.1 896.034 2656.55 891.695 2658.92 886.034C2661.29 880.373 2662.47 873.598 2662.47 865.71C2662.47 858.008 2661.31 851.21 2658.99 845.317C2656.67 839.424 2653.24 834.807 2648.69 831.466C2644.14 828.125 2638.53 826.455 2631.85 826.455C2624.89 826.455 2619.09 828.218 2614.44 831.744C2609.85 835.271 2606.39 840.004 2604.07 845.943C2601.8 851.883 2600.66 858.472 2600.66 865.71C2600.66 873.134 2601.82 879.7 2604.14 885.408C2606.51 891.069 2609.99 895.523 2614.58 898.771C2619.22 901.973 2624.98 903.574 2631.85 903.574Z" fill="black"/>
</svg>
